<svg width="564" height="206" viewBox="0 0 564 206" fill="none" xmlns="http://www.w3.org/2000/svg">
    <rect width="564" height="206" fill="white"/>
    <path d="M135.4 113.6C129.733 113.6 124.467 112.7 119.6 110.9C114.8 109.1 110.633 106.567 107.1 103.3C103.567 99.9667 100.8 96.0667 98.8 91.6C96.8667 87.1333 95.9 82.2667 95.9 77C95.9 71.6667 96.8667 66.8 98.8 62.4C100.8 57.9333 103.567 54.0667 107.1 50.8C110.633 47.4667 114.8 44.9 119.6 43.1C124.467 41.3 129.733 40.4 135.4 40.4C141.133 40.4 146.4 41.3 151.2 43.1C156 44.9 160.167 47.4667 163.7 50.8C167.233 54.0667 169.967 57.9333 171.9 62.4C173.9 66.8 174.9 71.6667 174.9 77C174.9 82.2667 173.9 87.1333 171.9 91.6C169.967 96.0667 167.233 99.9667 163.7 103.3C160.167 106.567 156 109.1 151.2 110.9C146.4 112.7 141.133 113.6 135.4 113.6ZM158.3 129.7C155.033 129.7 152 129.367 149.2 128.7C146.4 128.1 143.667 127.067 141 125.6C138.4 124.133 135.667 122.1 132.8 119.5C129.933 116.967 126.733 113.8 123.2 110L147.6 104C149.2 106.467 150.567 108.367 151.7 109.7C152.833 111.033 153.933 111.967 155 112.5C156.133 113.033 157.4 113.3 158.8 113.3C162.267 113.3 165.5 111.8 168.5 108.8L178.7 120.8C173.7 126.733 166.9 129.7 158.3 129.7ZM135.4 94.5C137.6 94.5 139.633 94.1 141.5 93.3C143.433 92.5 145.1 91.3667 146.5 89.9C147.967 88.3667 149.1 86.5333 149.9 84.4C150.7 82.2 151.1 79.7333 151.1 77C151.1 74.2667 150.7 71.8333 149.9 69.7C149.1 67.5 147.967 65.6667 146.5 64.2C145.1 62.6667 143.433 61.5 141.5 60.7C139.633 59.9 137.6 59.5 135.4 59.5C133.2 59.5 131.133 59.9 129.2 60.7C127.333 61.5 125.667 62.6667 124.2 64.2C122.8 65.6667 121.7 67.5 120.9 69.7C120.1 71.8333 119.7 74.2667 119.7 77C119.7 79.7333 120.1 82.2 120.9 84.4C121.7 86.5333 122.8 88.3667 124.2 89.9C125.667 91.3667 127.333 92.5 129.2 93.3C131.133 94.1 133.2 94.5 135.4 94.5ZM206.766 113C202.032 113 197.632 111.867 193.566 109.6C189.566 107.267 186.366 104 183.966 99.8C181.566 95.5333 180.366 90.4667 180.366 84.6C180.366 78.7333 181.566 73.7 183.966 69.5C186.366 65.2333 189.566 61.9667 193.566 59.7C197.632 57.4333 202.032 56.3 206.766 56.3C211.566 56.3 215.499 57.3333 218.566 59.4C221.632 61.4 223.899 64.5 225.366 68.7C226.832 72.8333 227.566 78.1333 227.566 84.6C227.566 91.1333 226.866 96.5 225.466 100.7C224.132 104.9 221.932 108 218.866 110C215.866 112 211.832 113 206.766 113ZM212.166 95.4C213.832 95.4 215.332 95 216.666 94.2C217.999 93.4 219.066 92.2 219.866 90.6C220.666 88.9333 221.066 86.9333 221.066 84.6C221.066 82.2 220.666 80.2333 219.866 78.7C219.066 77.1 217.999 75.9 216.666 75.1C215.332 74.3 213.832 73.9 212.166 73.9C210.499 73.9 208.999 74.3 207.666 75.1C206.332 75.9 205.266 77.1 204.466 78.7C203.666 80.2333 203.266 82.2 203.266 84.6C203.266 86.9333 203.666 88.9333 204.466 90.6C205.266 92.2 206.332 93.4 207.666 94.2C208.999 95 210.499 95.4 212.166 95.4ZM221.766 112V104.6L221.666 84.6L220.666 64.6V37.8H243.266V112H221.766ZM253.273 112V57.3H274.773V73.8L271.273 69.1C272.94 64.8333 275.607 61.6333 279.273 59.5C282.94 57.3667 287.34 56.3 292.473 56.3V76.3C291.473 76.1667 290.573 76.0667 289.773 76C289.04 75.9333 288.273 75.9 287.473 75.9C284.073 75.9 281.273 76.8 279.073 78.6C276.94 80.3333 275.873 83.3667 275.873 87.7V112H253.273ZM328.952 112V102.3L327.352 99.7V81.3C327.352 78.6333 326.518 76.6 324.852 75.2C323.252 73.8 320.618 73.1 316.952 73.1C314.485 73.1 311.985 73.5 309.452 74.3C306.918 75.0333 304.752 76.0667 302.952 77.4L295.752 62.5C298.952 60.5 302.785 58.9667 307.252 57.9C311.718 56.8333 316.085 56.3 320.352 56.3C329.752 56.3 337.018 58.4 342.152 62.6C347.352 66.8 349.952 73.4667 349.952 82.6V112H328.952ZM313.452 113C308.985 113 305.252 112.233 302.252 110.7C299.252 109.167 296.985 107.133 295.452 104.6C293.918 102 293.152 99.1333 293.152 96C293.152 92.4667 294.052 89.4667 295.852 87C297.652 84.5333 300.385 82.6667 304.052 81.4C307.785 80.1333 312.485 79.5 318.152 79.5H329.552V90.4H321.752C319.352 90.4 317.585 90.8 316.452 91.6C315.385 92.3333 314.852 93.4667 314.852 95C314.852 96.2667 315.318 97.3333 316.252 98.2C317.252 99 318.585 99.4 320.252 99.4C321.785 99.4 323.185 99 324.452 98.2C325.785 97.3333 326.752 96 327.352 94.2L330.252 100.9C329.385 104.967 327.552 108 324.752 110C321.952 112 318.185 113 313.452 113ZM397.719 56.3C401.919 56.3 405.719 57.1667 409.119 58.9C412.519 60.5667 415.185 63.2 417.119 66.8C419.119 70.4 420.119 75.0667 420.119 80.8V112H397.519V84.7C397.519 81.3 396.919 78.9 395.719 77.5C394.519 76.0333 392.885 75.3 390.819 75.3C389.285 75.3 387.852 75.6667 386.519 76.4C385.252 77.0667 384.219 78.2 383.419 79.8C382.685 81.4 382.319 83.5667 382.319 86.3V112H359.719V57.3H381.219V73.3L376.919 68.7C379.052 64.5667 381.919 61.4667 385.519 59.4C389.185 57.3333 393.252 56.3 397.719 56.3ZM456.334 113C448.8 113 442.934 111.2 438.734 107.6C434.534 103.933 432.434 98.3333 432.434 90.8V45H455.034V90.6C455.034 92.2667 455.467 93.5667 456.334 94.5C457.267 95.4333 458.4 95.9 459.734 95.9C461.667 95.9 463.367 95.4 464.834 94.4L470.234 110.1C468.5 111.1 466.4 111.833 463.934 112.3C461.534 112.767 459 113 456.334 113ZM424.934 76.8V60.3H466.234V76.8H424.934Z" fill="url(#paint0_linear_0_1)"/>
    <path d="M339.912 173V155.4C339.912 153.459 340.488 151.912 341.64 150.76C342.792 149.587 344.435 149 346.568 149C347.293 149 347.987 149.075 348.648 149.224C349.331 149.373 349.907 149.608 350.376 149.928L349.064 153.544C348.787 153.352 348.477 153.203 348.136 153.096C347.795 152.989 347.432 152.936 347.048 152.936C346.323 152.936 345.757 153.149 345.352 153.576C344.968 153.981 344.776 154.6 344.776 155.432V157.032L344.904 159.176V173H339.912ZM337.256 160.008V156.168H349.192V160.008H337.256ZM359.652 173.256C357.818 173.256 356.186 172.872 354.756 172.104C353.348 171.336 352.228 170.291 351.396 168.968C350.586 167.624 350.18 166.099 350.18 164.392C350.18 162.664 350.586 161.139 351.396 159.816C352.228 158.472 353.348 157.427 354.756 156.68C356.186 155.912 357.818 155.528 359.652 155.528C361.466 155.528 363.087 155.912 364.516 156.68C365.946 157.427 367.066 158.461 367.876 159.784C368.687 161.107 369.092 162.643 369.092 164.392C369.092 166.099 368.687 167.624 367.876 168.968C367.066 170.291 365.946 171.336 364.516 172.104C363.087 172.872 361.466 173.256 359.652 173.256ZM359.652 169.16C360.484 169.16 361.231 168.968 361.892 168.584C362.554 168.2 363.076 167.656 363.46 166.952C363.844 166.227 364.036 165.373 364.036 164.392C364.036 163.389 363.844 162.536 363.46 161.832C363.076 161.128 362.554 160.584 361.892 160.2C361.231 159.816 360.484 159.624 359.652 159.624C358.82 159.624 358.074 159.816 357.412 160.2C356.751 160.584 356.218 161.128 355.812 161.832C355.428 162.536 355.236 163.389 355.236 164.392C355.236 165.373 355.428 166.227 355.812 166.952C356.218 167.656 356.751 168.2 357.412 168.584C358.074 168.968 358.82 169.16 359.652 169.16ZM372.429 173V155.784H377.197V160.648L376.525 159.24C377.037 158.024 377.858 157.107 378.989 156.488C380.12 155.848 381.496 155.528 383.117 155.528V160.136C382.904 160.115 382.712 160.104 382.541 160.104C382.37 160.083 382.189 160.072 381.997 160.072C380.632 160.072 379.522 160.467 378.669 161.256C377.837 162.024 377.421 163.229 377.421 164.872V173H372.429ZM400.265 167.88L399.977 161.896L410.697 150.6H416.457L406.793 161L403.913 164.072L400.265 167.88ZM395.625 173V150.6H400.777V173H395.625ZM410.953 173L402.985 163.24L406.377 159.56L417.001 173H410.953ZM419.312 173V150.6H423.6L433.136 166.408H430.864L440.24 150.6H444.496L444.56 173H439.696L439.664 158.056H440.56L433.072 170.632H430.736L423.088 158.056H424.176V173H419.312ZM449.875 173V150.6H459.571C461.576 150.6 463.304 150.931 464.755 151.592C466.205 152.232 467.325 153.16 468.115 154.376C468.904 155.592 469.299 157.043 469.299 158.728C469.299 160.392 468.904 161.832 468.115 163.048C467.325 164.264 466.205 165.203 464.755 165.864C463.304 166.504 461.576 166.824 459.571 166.824H452.755L455.059 164.488V173H449.875ZM455.059 165.064L452.755 162.6H459.283C460.883 162.6 462.077 162.259 462.867 161.576C463.656 160.893 464.051 159.944 464.051 158.728C464.051 157.491 463.656 156.531 462.867 155.848C462.077 155.165 460.883 154.824 459.283 154.824H452.755L455.059 152.36V165.064Z" fill="url(#paint1_linear_0_1)"/>
    <defs>
        <linearGradient id="paint0_linear_0_1" x1="93" y1="76" x2="471" y2="76" gradientUnits="userSpaceOnUse">
            <stop stop-color="#FF0000"/>
            <stop offset="1" stop-color="#FF32C5"/>
        </linearGradient>
        <linearGradient id="paint1_linear_0_1" x1="337" y1="161.5" x2="471" y2="161.5" gradientUnits="userSpaceOnUse">
            <stop stop-color="#6200FF"/>
            <stop offset="1" stop-color="#FF005E"/>
        </linearGradient>
    </defs>
</svg>
